<svg xmlns="http://www.w3.org/2000/svg" width="512" height="512" viewBox="0 0 34.618 34.617"><g fill="#FFDA44"><path d="M29.162 17.312c.435-.467.85-.934 1.217-1.4 2.272-2.89 2.956-5.466 1.921-7.259-.808-1.396-2.546-2.136-5.028-2.136-1.213 0-2.584.195-4.037.532C21.915 2.756 19.775 0 17.309 0c-2.467 0-4.606 2.756-5.927 7.051-1.452-.337-2.823-.532-4.036-.532-2.483 0-4.221.739-5.027 2.137-1.034 1.792-.353 4.368 1.92 7.258.367.467.782.934 1.216 1.399-3.055 3.289-4.369 6.516-3.137 8.652.807 1.396 2.543 2.135 5.027 2.135 1.213 0 2.584-.195 4.037-.531 1.319 4.293 3.459 7.049 5.926 7.049 2.465 0 4.606-2.756 5.925-7.051 1.452.338 2.823.533 4.037.533 2.482 0 4.222-.74 5.028-2.137 1.234-2.135-.081-5.361-3.136-8.651zm1.984 7.985c-.702 1.215-2.495 1.471-3.875 1.471-1.104 0-2.354-.178-3.681-.48.298-1.178.518-2.471.691-3.816a3.34 3.34 0 0 1-.982.164h-.353a30.655 30.655 0 0 1-.631 3.324c-.242-.068-.495-.158-.742-.236a3.306 3.306 0 0 1-1.667.846c.693.248 1.383.477 2.056.668-1.171 3.799-2.946 6.049-4.653 6.049-1.708 0-3.482-2.25-4.654-6.047a34.329 34.329 0 0 0 2.058-.67 3.3 3.3 0 0 1-1.668-.846c-.248.078-.501.168-.744.236a30.755 30.755 0 0 1-.63-3.324h-.353c-.344 0-.669-.068-.982-.166.173 1.348.394 2.641.691 3.816-1.326.305-2.577.482-3.68.482-1.38 0-3.172-.256-3.874-1.473-.853-1.477.206-4.135 2.904-7.044.516.499 1.074.993 1.655 1.479-.017-.14-.042-.279-.042-.425v-1.384c-.228-.207-.465-.411-.681-.62.213-.207.453-.415.681-.622V15.31c0-.146.025-.285.043-.425-.581.488-1.136.98-1.644 1.475a20.81 20.81 0 0 1-1.102-1.271c-1.885-2.397-2.546-4.5-1.813-5.77.701-1.215 2.494-1.47 3.874-1.47 1.103 0 2.354.177 3.68.48-.298 1.178-.518 2.471-.69 3.816a3.26 3.26 0 0 1 .981-.165h.353c.163-1.191.375-2.304.63-3.324.244.068.496.158.744.236a3.317 3.317 0 0 1 1.667-.846 31.636 31.636 0 0 0-2.057-.669C13.828 3.58 15.602 1.33 17.31 1.33c1.708 0 3.482 2.25 4.653 6.048-.672.191-1.362.421-2.058.67.64.118 1.212.418 1.669.846.248-.078.5-.168.743-.236.256 1.021.469 2.133.631 3.324h.352c.344 0 .669.067.981.165-.174-1.347-.394-2.639-.69-3.816 1.327-.305 2.577-.481 3.681-.481 1.38 0 3.174.255 3.875 1.47.733 1.271.072 3.372-1.813 5.77-.333.424-.709.849-1.104 1.271a31.482 31.482 0 0 0-1.644-1.475c.018.141.043.28.043.425v1.368c.228.208.468.416.681.623-.215.207-.454.413-.681.62v1.384c0 .146-.025.287-.043.428.581-.488 1.14-.982 1.655-1.482 2.699 2.91 3.759 5.568 2.905 7.045z"/><path d="M23.465 14.646h-2.994a.502.502 0 0 1-.5-.5v-2.994c0-.274-.225-.5-.5-.5h-4.326c-.275 0-.5.226-.5.5v2.994c0 .275-.225.5-.5.5H11.15c-.275 0-.5.226-.5.5v4.327c0 .273.225.5.5.5h2.995c.275 0 .5.225.5.5v2.994c0 .273.225.5.5.5h4.326c.275 0 .5-.227.5-.5v-2.996c0-.275.226-.5.5-.5h2.994c.275 0 .5-.225.5-.5v-4.326a.5.5 0 0 0-.5-.499z"/></g></svg>